HIERARCHY
ROOT Root
{
	OFFSET 0.0000 0.0000 0.0000
	CHANNELS 6 Xposition Yposition Zposition Zrotation Xrotation Yrotation
	JOINT Spine01
	{
		OFFSET 0.0000 -16.7008 118.8322
		CHANNELS 6 Xposition Yposition Zposition Zrotation Xrotation Yrotation
		JOINT Spine02
		{
			OFFSET 0.0000 11.8586 169.5859
			CHANNELS 6 Xposition Yposition Zposition Zrotation Xrotation Yrotation
			JOINT LeftShoulder
			{
				OFFSET 83.0000 21.5583 44.2746
				CHANNELS 6 Xposition Yposition Zposition Zrotation Xrotation Yrotation
				JOINT LeftArm
				{
					OFFSET 0.0000 -111.4369 141.3570
					CHANNELS 6 Xposition Yposition Zposition Zrotation Xrotation Yrotation
					JOINT LeftForeArm
					{
						OFFSET 0.0000 -172.4081 -79.8464
						CHANNELS 6 Xposition Yposition Zposition Zrotation Xrotation Yrotation
						JOINT LeftWrist
						{
							OFFSET 0.0000 -209.8784 7.1457
							CHANNELS 6 Xposition Yposition Zposition Zrotation Xrotation Yrotation
							JOINT LeftHand
							{
								OFFSET 0.0000 -64.9257 26.1658
								CHANNELS 6 Xposition Yposition Zposition Zrotation Xrotation Yrotation
								End Site
								{
									OFFSET 0.0000 -20.5704 56.3636
								}
							}
						}
					}
				}
			}
			JOINT RightShoulder
			{
				OFFSET -83.0000 21.5583 44.2746
				CHANNELS 6 Xposition Yposition Zposition Zrotation Xrotation Yrotation
				JOINT RightArm
				{
					OFFSET 0.0000 -111.4369 141.3570
					CHANNELS 6 Xposition Yposition Zposition Zrotation Xrotation Yrotation
					JOINT RightForeArm
					{
						OFFSET 0.0000 -172.4081 -79.8464
						CHANNELS 6 Xposition Yposition Zposition Zrotation Xrotation Yrotation
						JOINT RightWrist
						{
							OFFSET 0.0000 -209.8784 7.1457
							CHANNELS 6 Xposition Yposition Zposition Zrotation Xrotation Yrotation
							JOINT RightHand
							{
								OFFSET 0.0000 -64.9257 26.1658
								CHANNELS 6 Xposition Yposition Zposition Zrotation Xrotation Yrotation
								End Site
								{
									OFFSET 0.0000 -20.5704 56.3636
								}
							}
						}
					}
				}
			}
			JOINT Neck01
			{
				OFFSET 0.0000 4.1879 119.9269
				CHANNELS 6 Xposition Yposition Zposition Zrotation Xrotation Yrotation
				JOINT Neck02
				{
					OFFSET 0.0000 -14.3102 88.8550
					CHANNELS 6 Xposition Yposition Zposition Zrotation Xrotation Yrotation
					JOINT Neck03
					{
						OFFSET 0.0000 72.0997 53.8668
						CHANNELS 6 Xposition Yposition Zposition Zrotation Xrotation Yrotation
						JOINT Neck04
						{
							OFFSET 0.0000 88.9597 -13.6445
							CHANNELS 6 Xposition Yposition Zposition Zrotation Xrotation Yrotation
							JOINT Head
							{
								OFFSET 0.0000 19.3735 72.4546
								CHANNELS 6 Xposition Yposition Zposition Zrotation Xrotation Yrotation
								End Site
								{
									OFFSET 0.0000 -28.2512 167.6361
								}
								JOINT LeftEar
								{
									OFFSET 45.0000 62.4894 -9.7509
									CHANNELS 6 Xposition Yposition Zposition Zrotation Xrotation Yrotation
									End Site
									{
										OFFSET 23.1256 59.6428 28.4242
									}
								}
								JOINT RightEar
								{
									OFFSET -45.0000 62.4894 -9.7509
									CHANNELS 6 Xposition Yposition Zposition Zrotation Xrotation Yrotation
									End Site
									{
										OFFSET -23.1256 59.6428 28.4242
									}
								}
							}
						}
					}
				}
			}
		}
	}
	JOINT LeftLeg
	{
		OFFSET 75.0000 -65.3041 -110.1607
		CHANNELS 6 Xposition Yposition Zposition Zrotation Xrotation Yrotation
		JOINT LeftLowerLeg
		{
			OFFSET 0.0000 -209.4885 14.6489
			CHANNELS 6 Xposition Yposition Zposition Zrotation Xrotation Yrotation
			JOINT LeftAnkle
			{
				OFFSET 0.0000 -168.5298 -141.4133
				CHANNELS 6 Xposition Yposition Zposition Zrotation Xrotation Yrotation
				JOINT LeftFoot
				{
					OFFSET 0.0000 -96.5926 25.8819
					CHANNELS 6 Xposition Yposition Zposition Zrotation Xrotation Yrotation
					End Site
					{
						OFFSET 0.0000 -19.5341 56.7311
					}
				}
			}
		}
	}
	JOINT RightLeg
	{
		OFFSET -75.0000 -65.3041 -110.1607
		CHANNELS 6 Xposition Yposition Zposition Zrotation Xrotation Yrotation
		JOINT RightLowerLeg
		{
			OFFSET 0.0000 -209.4885 14.6489
			CHANNELS 6 Xposition Yposition Zposition Zrotation Xrotation Yrotation
			JOINT RightAnkle
			{
				OFFSET 0.0000 -168.5298 -141.4133
				CHANNELS 6 Xposition Yposition Zposition Zrotation Xrotation Yrotation
				JOINT RightFoot
				{
					OFFSET 0.0000 -96.5926 25.8819
					CHANNELS 6 Xposition Yposition Zposition Zrotation Xrotation Yrotation
					End Site
					{
						OFFSET 0.0000 -19.5341 56.7311
					}
				}
			}
		}
	}
	JOINT TailBase
	{
		OFFSET 0.0000 -22.9100 -124.3991
		CHANNELS 6 Xposition Yposition Zposition Zrotation Xrotation Yrotation
		JOINT Tail1
		{
			OFFSET 0.0000 0.0000 -67.0000
			CHANNELS 6 Xposition Yposition Zposition Zrotation Xrotation Yrotation
			JOINT Tail2
			{
				OFFSET 0.0000 0.0000 -67.0000
				CHANNELS 6 Xposition Yposition Zposition Zrotation Xrotation Yrotation
				JOINT Tail3
				{
					OFFSET 0.0000 0.0000 -67.0000
					CHANNELS 6 Xposition Yposition Zposition Zrotation Xrotation Yrotation
					JOINT Tail4
					{
						OFFSET 0.0000 0.0000 -67.0000
						CHANNELS 6 Xposition Yposition Zposition Zrotation Xrotation Yrotation
						JOINT Tail5
						{
							OFFSET 0.0000 0.0000 -67.0000
							CHANNELS 6 Xposition Yposition Zposition Zrotation Xrotation Yrotation
							JOINT Tail6
							{
								OFFSET 0.0000 0.0000 -67.0000
								CHANNELS 6 Xposition Yposition Zposition Zrotation Xrotation Yrotation
								End Site
								{
									OFFSET 0.0000 0.0000 -67.0000
								}
							}
						}
					}
				}
			}
		}
	}
}
MOTION
Frames: 4
Frame Time: 0.008342
0.0000 0.0000 0.0000 0.0000 0.0000 0.0000 0.0000 -16.7008 118.8322 0.0000 0.0000 0.0000 0.0000 11.8586 169.5859 0.0000 0.0000 0.0000 83.0000 21.5583 44.2746 0.0000 0.0000 0.0000 0.0000 -111.4369 141.3570 0.0000 0.0000 0.0000 0.0000 -172.4081 -79.8464 0.0000 0.0000 0.0000 0.0000 -209.8784 7.1457 0.0000 0.0000 0.0000 0.0000 -64.9257 26.1658 0.0000 0.0000 0.0000 -83.0000 21.5583 44.2746 0.0000 0.0000 0.0000 0.0000 -111.4369 141.3570 0.0000 0.0000 0.0000 0.0000 -172.4081 -79.8464 0.0000 0.0000 0.0000 0.0000 -209.8784 7.1457 0.0000 0.0000 0.0000 0.0000 -64.9257 26.1658 0.0000 0.0000 0.0000 0.0000 4.1879 119.9269 0.0000 0.0000 0.0000 0.0000 -14.3102 88.8550 0.0000 0.0000 0.0000 0.0000 72.0997 53.8668 0.0000 0.0000 0.0000 0.0000 88.9597 -13.6445 0.0000 0.0000 0.0000 0.0000 19.3735 72.4546 0.0000 0.0000 0.0000 45.0000 62.4894 -9.7509 0.0000 0.0000 0.0000 -45.0000 62.4894 -9.7509 0.0000 0.0000 0.0000 75.0000 -65.3041 -110.1607 0.0000 0.0000 0.0000 0.0000 -209.4885 14.6489 0.0000 0.0000 0.0000 0.0000 -168.5298 -141.4133 0.0000 0.0000 0.0000 0.0000 -96.5926 25.8819 0.0000 0.0000 0.0000 -75.0000 -65.3041 -110.1607 0.0000 0.0000 0.0000 0.0000 -209.4885 14.6489 0.0000 0.0000 0.0000 0.0000 -168.5298 -141.4133 0.0000 0.0000 0.0000 0.0000 -96.5926 25.8819 0.0000 0.0000 0.0000 0.0000 -22.9100 -124.3991 0.0000 0.0000 0.0000 0.0000 0.0000 -67.0000 0.0000 0.0000 0.0000 0.0000 0.0000 -67.0000 0.0000 0.0000 0.0000 0.0000 0.0000 -67.0000 0.0000 0.0000 0.0000 0.0000 0.0000 -67.0000 0.0000 0.0000 0.0000 0.0000 0.0000 -67.0000 0.0000 0.0000 0.0000 0.0000 0.0000 -67.0000 0.0000 0.0000 0.0000 
-205.8090 598.4700 1148.1500 7.3798 14.1659 -126.9232 -0.0000 -16.7008 118.8322 7.8027 12.1309 -12.3142 0.0000 11.8586 169.5859 5.4357 8.1283 -8.3051 55.6058 28.7229 28.1504 36.2342 -15.6653 0.0152 0.0000 -111.4369 141.3570 -26.4850 12.8569 -2.8255 0.0000 -172.4081 -79.8464 0.3521 -46.4219 -6.8923 -0.0000 -209.8784 7.1457 -3.3324 36.6354 -0.1450 -0.0000 -64.9257 26.1658 -26.2303 63.2794 27.9984 -69.8929 18.5518 67.0397 -6.2565 -3.1425 -7.9616 0.0000 -111.4369 141.3570 17.2261 2.2073 7.2241 -0.0000 -172.4081 -79.8464 0.0473 -9.9712 -1.3616 -0.0000 -209.8784 7.1457 -4.2308 -9.1642 -0.1450 0.0000 -64.9257 26.1658 11.0334 1.6388 -4.3985 -0.0000 4.1879 119.9269 6.3991 2.1877 -23.5434 -0.0000 -14.3102 88.8550 14.9092 36.6792 2.6283 -0.0000 72.0997 53.8668 -3.1332 5.3556 -6.9540 0.0000 88.9597 -13.6445 -2.1941 0.1642 -14.3841 0.0000 19.3735 72.4546 21.4224 -14.0491 8.4955 49.5642 52.1030 -14.3557 -14.4873 -35.7753 13.3071 -42.0407 62.1215 -14.7149 9.5124 -12.9075 0.0122 75.0000 -65.3041 -110.1607 21.6703 -0.4780 23.3378 0.0000 -209.4885 14.6489 -0.0000 -4.5354 -0.0000 0.0000 -168.5298 -141.4133 0.0000 -11.1993 0.0000 0.0000 -96.5926 25.8819 -2.6840 14.3962 1.5636 -75.0000 -65.3041 -110.1607 13.3965 -5.8502 2.0806 0.0000 -209.4885 14.6489 0.0000 -26.4539 0.0000 -0.0000 -168.5298 -141.4133 0.0000 25.6656 -0.0000 0.0000 -96.5926 25.8819 -16.4389 2.4144 6.5375 0.0000 -22.9100 -124.3991 1.8697 -26.2913 3.2834 0.0000 0.0000 -67.0000 -2.6268 -26.1002 -5.9534 0.0000 -0.0000 -67.0000 -0.4694 3.9950 6.7073 0.0000 0.0000 -67.0000 -0.2630 2.3030 6.5157 -0.0000 0.0000 -67.0000 -4.4219 15.6950 15.9534 0.0000 0.0000 -67.0000 -17.2949 18.6100 44.2951 -0.0000 0.0000 -67.0000 -4.7119 18.3578 14.6657 
-208.7240 598.6950 1148.7900 7.7129 14.0783 -127.9037 -0.0000 -16.7008 118.8322 7.9199 12.0245 -12.4069 0.0000 11.8586 169.5859 5.3048 8.0386 -8.0765 53.8193 30.5247 28.6561 34.5255 -13.9433 1.0486 -0.0000 -111.4369 141.3570 -27.6018 8.6109 -2.9794 -0.0000 -172.4081 -79.8464 0.4535 -46.4389 -8.8905 0.0000 -209.8784 7.1457 -2.1612 29.2707 -0.0860 0.0000 -64.9257 26.1658 -23.3490 53.8341 24.2502 -69.9992 18.5652 67.4547 -5.9188 -2.9230 -7.9684 -0.0000 -111.4369 141.3570 17.2365 2.2034 7.3750 0.0000 -172.4081 -79.8464 0.0243 -9.7810 -0.7000 0.0000 -209.8784 7.1457 -4.0019 -9.1679 -0.1372 0.0000 -64.9257 26.1658 10.7370 1.5989 -4.2698 0.0000 4.1879 119.9269 6.7028 1.9591 -23.1095 0.0000 -14.3102 88.8550 14.2622 37.1926 3.0020 0.0000 72.0997 53.8668 -3.1219 5.6460 -6.8469 0.0000 88.9597 -13.6445 -2.3063 -0.8564 -13.7821 0.0000 19.3735 72.4546 20.9960 -14.2402 8.3468 49.6886 51.9778 -14.0106 -14.8805 -36.2209 13.4164 -42.0764 61.8623 -14.5462 9.2078 -13.2788 -0.1070 75.0000 -65.3041 -110.1607 21.3126 0.0353 23.2938 0.0000 -209.4885 14.6489 -0.0000 -4.8895 -0.0000 -0.0000 -168.5298 -141.4133 0.0000 -11.0482 0.0000 -0.0000 -96.5926 25.8819 -2.8809 13.9015 1.6564 -75.0000 -65.3041 -110.1607 13.2551 -6.0742 2.6356 -0.0000 -209.4885 14.6489 0.0000 -26.2284 -0.0000 -0.0000 -168.5298 -141.4133 -0.0000 25.9402 0.0000 0.0000 -96.5926 25.8819 -16.4873 2.3541 6.5404 -0.0000 -22.9100 -124.3991 2.0809 -26.3725 3.6461 -0.0000 0.0000 -67.0000 -2.8377 -25.7810 -6.5018 0.0000 0.0000 -67.0000 -0.4571 4.0813 6.3966 0.0000 0.0000 -67.0000 -0.2537 2.4084 6.0152 0.0000 0.0000 -67.0000 -4.4613 15.6068 16.1727 -0.0000 -0.0000 -67.0000 -17.6436 18.6744 44.8086 0.0000 0.0000 -67.0000 -4.6587 18.3882 14.4842 
-211.4260 598.9140 1149.0400 7.9427 13.8770 -128.8061 0.0000 -16.7008 118.8322 8.0813 11.8976 -12.4391 -0.0000 11.8586 169.5859 5.0888 7.9212 -7.9967 52.1355 32.2731 29.7949 32.1763 -11.9824 2.2043 -0.0000 -111.4369 141.3570 -28.0764 3.9801 -3.1938 -0.0000 -172.4081 -79.8464 0.5476 -44.7432 -11.1154 0.0000 -209.8784 7.1457 -0.9530 24.1171 -0.0361 0.0000 -64.9257 26.1658 -19.6306 42.1944 18.8540 -70.1463 18.8476 67.9369 -5.6844 -2.7191 -8.0232 0.0000 -111.4369 141.3570 17.2790 2.1823 7.4693 0.0000 -172.4081 -79.8464 0.0003 -9.4946 -0.0089 0.0000 -209.8784 7.1457 -3.7464 -9.1603 -0.1284 0.0000 -64.9257 26.1658 10.4471 1.4865 -4.1312 -0.0000 4.1879 119.9269 6.8891 1.7632 -22.5247 0.0000 -14.3102 88.8550 13.6383 37.6665 3.2949 0.0000 72.0997 53.8668 -2.9395 5.8359 -6.6929 0.0000 88.9597 -13.6445 -2.4305 -1.8248 -13.2837 0.0000 19.3735 72.4546 20.6284 -14.5006 8.2848 49.8257 51.7361 -13.8874 -15.2212 -36.4975 13.4748 -42.1831 61.6338 -14.4987 8.8615 -13.3741 -0.1460 75.0000 -65.3041 -110.1607 20.8519 0.4834 23.1178 0.0000 -209.4885 14.6489 -0.0000 -5.2065 -0.0000 -0.0000 -168.5298 -141.4133 0.0000 -10.7559 0.0000 -0.0000 -96.5926 25.8819 -3.0768 13.3346 1.7421 -75.0000 -65.3041 -110.1607 13.0145 -6.3209 2.8473 -0.0000 -209.4885 14.6489 0.0000 -25.9138 0.0000 0.0000 -168.5298 -141.4133 0.0000 26.0667 -0.0000 -0.0000 -96.5926 25.8819 -16.5634 2.2978 6.5559 0.0000 -22.9100 -124.3991 2.2303 -26.4693 3.8976 0.0000 0.0000 -67.0000 -2.9919 -25.4926 -6.9239 -0.0000 0.0000 -67.0000 -0.4602 4.2375 6.2033 -0.0000 -0.0000 -67.0000 -0.2499 2.5758 5.5425 -0.0000 0.0000 -67.0000 -4.4513 15.4715 16.2685 0.0000 -0.0000 -67.0000 -18.0572 18.9522 45.1095 0.0000 0.0000 -67.0000 -4.6192 18.7521 14.1079 
